<mxfile host="app.diagrams.net" modified="2023-05-19T16:41:40.230Z" agent="Mozilla/5.0 (Windows NT 10.0; Win64; x64) AppleWebKit/537.36 (KHTML, like Gecko) Chrome/113.0.0.0 Safari/537.36" etag="O4QYazCtVZVVYoo4PEnU" version="21.3.2" type="device">
  <diagram name="Page-1" id="gaKfHVnlqHtv4T318q6-">
    <mxGraphModel dx="1134" dy="1840" grid="1" gridSize="10" guides="1" tooltips="1" connect="1" arrows="1" fold="1" page="1" pageScale="1" pageWidth="827" pageHeight="1169" math="0" shadow="0">
      <root>
        <mxCell id="0" />
        <mxCell id="1" parent="0" />
        <mxCell id="LtvKg5eFJGfWGHTZpBCt-1" value="Неавторизированный&lt;br&gt;пользователь" style="shape=umlActor;verticalLabelPosition=bottom;verticalAlign=top;html=1;outlineConnect=0;" vertex="1" parent="1">
          <mxGeometry x="70" y="10" width="30" height="60" as="geometry" />
        </mxCell>
        <mxCell id="LtvKg5eFJGfWGHTZpBCt-2" value="" style="rounded=0;whiteSpace=wrap;html=1;direction=south;" vertex="1" parent="1">
          <mxGeometry x="80" y="180" width="10" height="70" as="geometry" />
        </mxCell>
        <mxCell id="LtvKg5eFJGfWGHTZpBCt-3" value="" style="endArrow=classic;html=1;rounded=0;entryX=0;entryY=0.5;entryDx=0;entryDy=0;" edge="1" parent="1" target="LtvKg5eFJGfWGHTZpBCt-2">
          <mxGeometry width="50" height="50" relative="1" as="geometry">
            <mxPoint x="85" y="110" as="sourcePoint" />
            <mxPoint x="160" y="90" as="targetPoint" />
          </mxGeometry>
        </mxCell>
        <mxCell id="LtvKg5eFJGfWGHTZpBCt-4" value="" style="endArrow=classic;html=1;rounded=0;exitX=0;exitY=0;exitDx=0;exitDy=0;" edge="1" parent="1" source="LtvKg5eFJGfWGHTZpBCt-2">
          <mxGeometry width="50" height="50" relative="1" as="geometry">
            <mxPoint x="370" y="270" as="sourcePoint" />
            <mxPoint x="240" y="180" as="targetPoint" />
          </mxGeometry>
        </mxCell>
        <mxCell id="LtvKg5eFJGfWGHTZpBCt-5" value="Входные данные" style="text;html=1;strokeColor=none;fillColor=none;align=center;verticalAlign=middle;whiteSpace=wrap;rounded=0;" vertex="1" parent="1">
          <mxGeometry x="110" y="150" width="100" height="30" as="geometry" />
        </mxCell>
        <mxCell id="LtvKg5eFJGfWGHTZpBCt-6" value="" style="endArrow=none;dashed=1;html=1;strokeWidth=1;rounded=0;entryX=1;entryY=0.5;entryDx=0;entryDy=0;" edge="1" parent="1">
          <mxGeometry width="50" height="50" relative="1" as="geometry">
            <mxPoint x="80" y="400" as="sourcePoint" />
            <mxPoint x="80" y="250" as="targetPoint" />
          </mxGeometry>
        </mxCell>
        <mxCell id="LtvKg5eFJGfWGHTZpBCt-7" value="" style="rounded=0;whiteSpace=wrap;html=1;direction=south;" vertex="1" parent="1">
          <mxGeometry x="80" y="400" width="10" height="70" as="geometry" />
        </mxCell>
        <mxCell id="LtvKg5eFJGfWGHTZpBCt-8" value="&lt;u&gt;Проверка входных данных&lt;/u&gt;" style="whiteSpace=wrap;html=1;aspect=fixed;" vertex="1" parent="1">
          <mxGeometry x="240" y="160" width="100" height="100" as="geometry" />
        </mxCell>
        <mxCell id="LtvKg5eFJGfWGHTZpBCt-9" value="" style="endArrow=open;html=1;rounded=0;endFill=0;entryX=1;entryY=0;entryDx=0;entryDy=0;exitX=-0.033;exitY=0.893;exitDx=0;exitDy=0;exitPerimeter=0;dashed=1;" edge="1" parent="1" source="LtvKg5eFJGfWGHTZpBCt-8" target="LtvKg5eFJGfWGHTZpBCt-2">
          <mxGeometry width="50" height="50" relative="1" as="geometry">
            <mxPoint x="160" y="250" as="sourcePoint" />
            <mxPoint x="120" y="300" as="targetPoint" />
          </mxGeometry>
        </mxCell>
        <mxCell id="LtvKg5eFJGfWGHTZpBCt-10" value="Ошибка входа" style="text;html=1;strokeColor=none;fillColor=none;align=center;verticalAlign=middle;whiteSpace=wrap;rounded=0;" vertex="1" parent="1">
          <mxGeometry x="110" y="220" width="100" height="30" as="geometry" />
        </mxCell>
        <mxCell id="LtvKg5eFJGfWGHTZpBCt-11" value="" style="ellipse;shape=umlControl;whiteSpace=wrap;html=1;" vertex="1" parent="1">
          <mxGeometry x="255" y="-10" width="70" height="80" as="geometry" />
        </mxCell>
        <mxCell id="LtvKg5eFJGfWGHTZpBCt-12" value="Форма авторизации" style="text;html=1;strokeColor=none;fillColor=none;align=center;verticalAlign=middle;whiteSpace=wrap;rounded=0;" vertex="1" parent="1">
          <mxGeometry x="260" y="80" width="60" height="30" as="geometry" />
        </mxCell>
        <mxCell id="LtvKg5eFJGfWGHTZpBCt-14" value="" style="endArrow=none;dashed=1;html=1;dashPattern=1 1;strokeWidth=1;rounded=0;exitX=0.5;exitY=0;exitDx=0;exitDy=0;entryX=0.5;entryY=1;entryDx=0;entryDy=0;" edge="1" parent="1" source="LtvKg5eFJGfWGHTZpBCt-8" target="LtvKg5eFJGfWGHTZpBCt-12">
          <mxGeometry width="50" height="50" relative="1" as="geometry">
            <mxPoint x="370" y="170" as="sourcePoint" />
            <mxPoint x="290" y="120" as="targetPoint" />
          </mxGeometry>
        </mxCell>
        <mxCell id="LtvKg5eFJGfWGHTZpBCt-15" value="" style="endArrow=classic;html=1;rounded=0;exitX=0;exitY=0;exitDx=0;exitDy=0;" edge="1" parent="1">
          <mxGeometry width="50" height="50" relative="1" as="geometry">
            <mxPoint x="340" y="180" as="sourcePoint" />
            <mxPoint x="490" y="180" as="targetPoint" />
          </mxGeometry>
        </mxCell>
        <mxCell id="LtvKg5eFJGfWGHTZpBCt-16" value="" style="endArrow=open;html=1;rounded=0;endFill=0;exitX=-0.033;exitY=0.893;exitDx=0;exitDy=0;exitPerimeter=0;dashed=1;" edge="1" parent="1">
          <mxGeometry width="50" height="50" relative="1" as="geometry">
            <mxPoint x="487" y="249" as="sourcePoint" />
            <mxPoint x="340" y="250" as="targetPoint" />
          </mxGeometry>
        </mxCell>
        <mxCell id="LtvKg5eFJGfWGHTZpBCt-17" value="" style="rounded=0;whiteSpace=wrap;html=1;direction=south;" vertex="1" parent="1">
          <mxGeometry x="490" y="180" width="10" height="70" as="geometry" />
        </mxCell>
        <mxCell id="LtvKg5eFJGfWGHTZpBCt-18" value="Входные данные" style="text;html=1;strokeColor=none;fillColor=none;align=center;verticalAlign=middle;whiteSpace=wrap;rounded=0;" vertex="1" parent="1">
          <mxGeometry x="370" y="150" width="100" height="30" as="geometry" />
        </mxCell>
        <mxCell id="LtvKg5eFJGfWGHTZpBCt-19" value="Ошибка входа" style="text;html=1;strokeColor=none;fillColor=none;align=center;verticalAlign=middle;whiteSpace=wrap;rounded=0;" vertex="1" parent="1">
          <mxGeometry x="370" y="220" width="100" height="30" as="geometry" />
        </mxCell>
        <mxCell id="LtvKg5eFJGfWGHTZpBCt-20" value="Администратор" style="shape=umlActor;verticalLabelPosition=bottom;verticalAlign=top;html=1;outlineConnect=0;" vertex="1" parent="1">
          <mxGeometry x="480" y="10" width="30" height="60" as="geometry" />
        </mxCell>
        <mxCell id="LtvKg5eFJGfWGHTZpBCt-21" value="" style="endArrow=none;dashed=1;html=1;strokeWidth=1;rounded=0;entryX=1;entryY=0.5;entryDx=0;entryDy=0;exitX=0;exitY=0.5;exitDx=0;exitDy=0;" edge="1" parent="1">
          <mxGeometry width="50" height="50" relative="1" as="geometry">
            <mxPoint x="491" y="180" as="sourcePoint" />
            <mxPoint x="490.5" y="90" as="targetPoint" />
          </mxGeometry>
        </mxCell>
        <mxCell id="LtvKg5eFJGfWGHTZpBCt-22" value="" style="endArrow=none;html=1;rounded=0;entryX=0.5;entryY=1;entryDx=0;entryDy=0;" edge="1" parent="1" target="LtvKg5eFJGfWGHTZpBCt-8">
          <mxGeometry width="50" height="50" relative="1" as="geometry">
            <mxPoint x="290" y="310" as="sourcePoint" />
            <mxPoint x="420" y="320" as="targetPoint" />
          </mxGeometry>
        </mxCell>
        <mxCell id="LtvKg5eFJGfWGHTZpBCt-23" value="" style="endArrow=classic;html=1;rounded=0;" edge="1" parent="1">
          <mxGeometry width="50" height="50" relative="1" as="geometry">
            <mxPoint x="290" y="310" as="sourcePoint" />
            <mxPoint x="620" y="310" as="targetPoint" />
          </mxGeometry>
        </mxCell>
        <mxCell id="LtvKg5eFJGfWGHTZpBCt-24" value="" style="endArrow=none;dashed=1;html=1;strokeWidth=1;rounded=0;entryX=1;entryY=0.5;entryDx=0;entryDy=0;exitX=0;exitY=0.5;exitDx=0;exitDy=0;" edge="1" parent="1">
          <mxGeometry width="50" height="50" relative="1" as="geometry">
            <mxPoint x="491" y="338" as="sourcePoint" />
            <mxPoint x="490.5" y="250" as="targetPoint" />
          </mxGeometry>
        </mxCell>
        <mxCell id="LtvKg5eFJGfWGHTZpBCt-25" value="&lt;u&gt;Основная &lt;br&gt;страница&lt;/u&gt;" style="rounded=0;whiteSpace=wrap;html=1;" vertex="1" parent="1">
          <mxGeometry x="620" y="15" width="120" height="50" as="geometry" />
        </mxCell>
        <mxCell id="LtvKg5eFJGfWGHTZpBCt-26" value="" style="endArrow=none;dashed=1;html=1;strokeWidth=1;rounded=0;entryX=1;entryY=0.5;entryDx=0;entryDy=0;" edge="1" parent="1">
          <mxGeometry width="50" height="50" relative="1" as="geometry">
            <mxPoint x="680" y="285" as="sourcePoint" />
            <mxPoint x="679.5" y="65" as="targetPoint" />
          </mxGeometry>
        </mxCell>
        <mxCell id="LtvKg5eFJGfWGHTZpBCt-27" value="&lt;u&gt;Загрузка&lt;br&gt;книг&lt;/u&gt;" style="rounded=0;whiteSpace=wrap;html=1;" vertex="1" parent="1">
          <mxGeometry x="620" y="287" width="120" height="50" as="geometry" />
        </mxCell>
        <mxCell id="LtvKg5eFJGfWGHTZpBCt-30" value="" style="endArrow=classic;html=1;rounded=0;exitX=0.5;exitY=0;exitDx=0;exitDy=0;entryX=0.5;entryY=0;entryDx=0;entryDy=0;" edge="1" parent="1" target="LtvKg5eFJGfWGHTZpBCt-7">
          <mxGeometry width="50" height="50" relative="1" as="geometry">
            <mxPoint x="680" y="435" as="sourcePoint" />
            <mxPoint x="540" y="380" as="targetPoint" />
          </mxGeometry>
        </mxCell>
        <mxCell id="LtvKg5eFJGfWGHTZpBCt-31" value="" style="endArrow=none;html=1;rounded=0;entryX=0.5;entryY=1;entryDx=0;entryDy=0;" edge="1" parent="1" target="LtvKg5eFJGfWGHTZpBCt-27">
          <mxGeometry width="50" height="50" relative="1" as="geometry">
            <mxPoint x="680" y="435" as="sourcePoint" />
            <mxPoint x="670" y="370" as="targetPoint" />
          </mxGeometry>
        </mxCell>
        <mxCell id="LtvKg5eFJGfWGHTZpBCt-33" value="" style="rounded=0;whiteSpace=wrap;html=1;direction=south;" vertex="1" parent="1">
          <mxGeometry x="490" y="338" width="10" height="70" as="geometry" />
        </mxCell>
        <mxCell id="LtvKg5eFJGfWGHTZpBCt-34" value="" style="endArrow=classic;html=1;rounded=0;entryX=0.5;entryY=0;entryDx=0;entryDy=0;" edge="1" parent="1" target="LtvKg5eFJGfWGHTZpBCt-33">
          <mxGeometry width="50" height="50" relative="1" as="geometry">
            <mxPoint x="680" y="373" as="sourcePoint" />
            <mxPoint x="590" y="340" as="targetPoint" />
          </mxGeometry>
        </mxCell>
        <mxCell id="LtvKg5eFJGfWGHTZpBCt-35" value="Выход из приложения" style="text;html=1;strokeColor=none;fillColor=none;align=center;verticalAlign=middle;whiteSpace=wrap;rounded=0;" vertex="1" parent="1">
          <mxGeometry x="530" y="340" width="130" height="30" as="geometry" />
        </mxCell>
        <mxCell id="LtvKg5eFJGfWGHTZpBCt-36" value="Выход из приложения" style="text;html=1;strokeColor=none;fillColor=none;align=center;verticalAlign=middle;whiteSpace=wrap;rounded=0;" vertex="1" parent="1">
          <mxGeometry x="530" y="402" width="130" height="30" as="geometry" />
        </mxCell>
        <mxCell id="LtvKg5eFJGfWGHTZpBCt-37" value="" style="endArrow=none;dashed=1;html=1;strokeWidth=1;rounded=0;entryX=1;entryY=0.5;entryDx=0;entryDy=0;" edge="1" parent="1">
          <mxGeometry width="50" height="50" relative="1" as="geometry">
            <mxPoint x="80" y="510" as="sourcePoint" />
            <mxPoint x="80.17" y="470" as="targetPoint" />
          </mxGeometry>
        </mxCell>
        <mxCell id="LtvKg5eFJGfWGHTZpBCt-38" value="" style="endArrow=none;dashed=1;html=1;strokeWidth=1;rounded=0;" edge="1" parent="1">
          <mxGeometry width="50" height="50" relative="1" as="geometry">
            <mxPoint x="491" y="510" as="sourcePoint" />
            <mxPoint x="491" y="408" as="targetPoint" />
          </mxGeometry>
        </mxCell>
        <mxCell id="LtvKg5eFJGfWGHTZpBCt-39" value="&lt;u&gt;Изменение записей в базе данных&lt;/u&gt;" style="rounded=0;whiteSpace=wrap;html=1;" vertex="1" parent="1">
          <mxGeometry x="930" y="287" width="120" height="50" as="geometry" />
        </mxCell>
        <mxCell id="LtvKg5eFJGfWGHTZpBCt-40" value="" style="endArrow=open;html=1;rounded=0;endFill=0;exitX=0;exitY=0.5;exitDx=0;exitDy=0;dashed=1;" edge="1" parent="1" source="LtvKg5eFJGfWGHTZpBCt-39">
          <mxGeometry width="50" height="50" relative="1" as="geometry">
            <mxPoint x="887" y="311.40999999999997" as="sourcePoint" />
            <mxPoint x="740" y="312.40999999999997" as="targetPoint" />
          </mxGeometry>
        </mxCell>
        <mxCell id="LtvKg5eFJGfWGHTZpBCt-41" value="" style="ellipse;shape=umlControl;whiteSpace=wrap;html=1;" vertex="1" parent="1">
          <mxGeometry x="955" y="-10" width="70" height="80" as="geometry" />
        </mxCell>
        <mxCell id="LtvKg5eFJGfWGHTZpBCt-42" value="Форма добавления книги" style="text;html=1;strokeColor=none;fillColor=none;align=center;verticalAlign=middle;whiteSpace=wrap;rounded=0;" vertex="1" parent="1">
          <mxGeometry x="960" y="80" width="60" height="30" as="geometry" />
        </mxCell>
        <mxCell id="LtvKg5eFJGfWGHTZpBCt-43" value="" style="endArrow=none;html=1;rounded=0;" edge="1" parent="1">
          <mxGeometry width="50" height="50" relative="1" as="geometry">
            <mxPoint x="720" y="287" as="sourcePoint" />
            <mxPoint x="720" y="210" as="targetPoint" />
          </mxGeometry>
        </mxCell>
        <mxCell id="LtvKg5eFJGfWGHTZpBCt-44" value="" style="endArrow=none;html=1;rounded=0;" edge="1" parent="1">
          <mxGeometry width="50" height="50" relative="1" as="geometry">
            <mxPoint x="720" y="210" as="sourcePoint" />
            <mxPoint x="1110" y="210" as="targetPoint" />
          </mxGeometry>
        </mxCell>
        <mxCell id="LtvKg5eFJGfWGHTZpBCt-45" value="" style="endArrow=none;html=1;rounded=0;" edge="1" parent="1">
          <mxGeometry width="50" height="50" relative="1" as="geometry">
            <mxPoint x="1110" y="210" as="sourcePoint" />
            <mxPoint x="1110" y="312" as="targetPoint" />
          </mxGeometry>
        </mxCell>
        <mxCell id="LtvKg5eFJGfWGHTZpBCt-46" value="" style="endArrow=none;html=1;rounded=0;entryX=1;entryY=0.5;entryDx=0;entryDy=0;" edge="1" parent="1" target="LtvKg5eFJGfWGHTZpBCt-39">
          <mxGeometry width="50" height="50" relative="1" as="geometry">
            <mxPoint x="1110" y="312" as="sourcePoint" />
            <mxPoint x="1140" y="350" as="targetPoint" />
            <Array as="points">
              <mxPoint x="1090" y="312" />
            </Array>
          </mxGeometry>
        </mxCell>
        <mxCell id="LtvKg5eFJGfWGHTZpBCt-47" value="" style="endArrow=none;dashed=1;html=1;strokeWidth=1;rounded=0;entryX=1;entryY=0.5;entryDx=0;entryDy=0;exitX=0.5;exitY=0;exitDx=0;exitDy=0;" edge="1" parent="1" source="LtvKg5eFJGfWGHTZpBCt-39">
          <mxGeometry width="50" height="50" relative="1" as="geometry">
            <mxPoint x="990" y="280" as="sourcePoint" />
            <mxPoint x="989.4100000000001" y="117" as="targetPoint" />
          </mxGeometry>
        </mxCell>
        <mxCell id="LtvKg5eFJGfWGHTZpBCt-48" value="" style="endArrow=none;dashed=1;html=1;strokeWidth=1;rounded=0;entryX=1;entryY=0.5;entryDx=0;entryDy=0;exitX=0.5;exitY=0;exitDx=0;exitDy=0;" edge="1" parent="1">
          <mxGeometry width="50" height="50" relative="1" as="geometry">
            <mxPoint x="990" y="508" as="sourcePoint" />
            <mxPoint x="989.4100000000001" y="338" as="targetPoint" />
          </mxGeometry>
        </mxCell>
        <mxCell id="LtvKg5eFJGfWGHTZpBCt-49" value="Изменение данных" style="text;html=1;strokeColor=none;fillColor=none;align=center;verticalAlign=middle;whiteSpace=wrap;rounded=0;" vertex="1" parent="1">
          <mxGeometry x="790" y="283" width="110" height="30" as="geometry" />
        </mxCell>
        <mxCell id="LtvKg5eFJGfWGHTZpBCt-50" value="Данные добавления книг" style="text;html=1;strokeColor=none;fillColor=none;align=center;verticalAlign=middle;whiteSpace=wrap;rounded=0;" vertex="1" parent="1">
          <mxGeometry x="730" y="170" width="100" height="30" as="geometry" />
        </mxCell>
        <mxCell id="LtvKg5eFJGfWGHTZpBCt-51" value="" style="endArrow=none;dashed=1;html=1;strokeWidth=1;rounded=0;" edge="1" parent="1">
          <mxGeometry width="50" height="50" relative="1" as="geometry">
            <mxPoint x="679" y="510" as="sourcePoint" />
            <mxPoint x="679.29" y="432" as="targetPoint" />
          </mxGeometry>
        </mxCell>
        <mxCell id="LtvKg5eFJGfWGHTZpBCt-52" value="Доступ" style="text;html=1;strokeColor=none;fillColor=none;align=center;verticalAlign=middle;whiteSpace=wrap;rounded=0;" vertex="1" parent="1">
          <mxGeometry x="314" y="280" width="100" height="30" as="geometry" />
        </mxCell>
        <mxCell id="LtvKg5eFJGfWGHTZpBCt-53" value="" style="endArrow=none;dashed=1;html=1;strokeWidth=1;rounded=0;entryX=1;entryY=0.5;entryDx=0;entryDy=0;" edge="1" parent="1">
          <mxGeometry width="50" height="50" relative="1" as="geometry">
            <mxPoint x="90" y="400" as="sourcePoint" />
            <mxPoint x="90" y="250" as="targetPoint" />
          </mxGeometry>
        </mxCell>
        <mxCell id="LtvKg5eFJGfWGHTZpBCt-54" value="" style="endArrow=none;dashed=1;html=1;strokeWidth=1;rounded=0;entryX=1;entryY=0.5;entryDx=0;entryDy=0;" edge="1" parent="1">
          <mxGeometry width="50" height="50" relative="1" as="geometry">
            <mxPoint x="89" y="510" as="sourcePoint" />
            <mxPoint x="89.17" y="470" as="targetPoint" />
          </mxGeometry>
        </mxCell>
        <mxCell id="LtvKg5eFJGfWGHTZpBCt-55" value="" style="endArrow=none;dashed=1;html=1;strokeWidth=1;rounded=0;entryX=1;entryY=0.5;entryDx=0;entryDy=0;exitX=0;exitY=0.5;exitDx=0;exitDy=0;" edge="1" parent="1">
          <mxGeometry width="50" height="50" relative="1" as="geometry">
            <mxPoint x="500" y="180" as="sourcePoint" />
            <mxPoint x="499.5" y="90" as="targetPoint" />
          </mxGeometry>
        </mxCell>
        <mxCell id="LtvKg5eFJGfWGHTZpBCt-56" value="" style="endArrow=none;dashed=1;html=1;strokeWidth=1;rounded=0;entryX=1;entryY=0.5;entryDx=0;entryDy=0;exitX=0;exitY=0.5;exitDx=0;exitDy=0;" edge="1" parent="1">
          <mxGeometry width="50" height="50" relative="1" as="geometry">
            <mxPoint x="500" y="338" as="sourcePoint" />
            <mxPoint x="499.5" y="250" as="targetPoint" />
          </mxGeometry>
        </mxCell>
        <mxCell id="LtvKg5eFJGfWGHTZpBCt-57" value="" style="endArrow=none;dashed=1;html=1;strokeWidth=1;rounded=0;" edge="1" parent="1">
          <mxGeometry width="50" height="50" relative="1" as="geometry">
            <mxPoint x="500" y="510" as="sourcePoint" />
            <mxPoint x="500" y="408" as="targetPoint" />
          </mxGeometry>
        </mxCell>
      </root>
    </mxGraphModel>
  </diagram>
</mxfile>
